PathFileType	4	(X/Y/Z)	C:\Users\Biomechanik\SynologyDrive\AlexP\Athlete_03\Athlete_3_25_03_31\Squat_bw_03\marker_experimental.trc
DataRate	CameraRate	NumFrames	NumMarkers	Units	OrigDataRate	OrigDataStartFrame	OrigNumFrames
200.000000	200.000000	4	55	mm	200.000000	0	544
Frame#	Time	BL			BR			GLAB			RFHD			LFHD			C7			T6			SPINMOL			SPINM2			SPINM3			T12			BELTOL			BELT2			BELT3			SACROL			SACR2			SACR3			LTHOL			LTH2			LTH3			LSHAOL			LSHA2			LSHA3			LHEE			LTOE			LM5			RTHOL			RTH2			RTH3			RSHAOL			RSHA2			RSHA3			RHEE			RTOE			RM5			STRN			XIPH			LACR			LUAOL			LUA2			LUA3			LLAOL			LLA2			LLA3			LWRR			LWRU			RACR			RUAOL			RUA2			RUA3			RLAOL			RLA2			RLA3			RWRR			RWRU			
		X1	Y1	Z1	X2	Y2	Z2	X3	Y3	Z3	X4	Y4	Z4	X5	Y5	Z5	X6	Y6	Z6	X7	Y7	Z7	X8	Y8	Z8	X9	Y9	Z9	X10	Y10	Z10	X11	Y11	Z11	X12	Y12	Z12	X13	Y13	Z13	X14	Y14	Z14	X15	Y15	Z15	X16	Y16	Z16	X17	Y17	Z17	X18	Y18	Z18	X19	Y19	Z19	X20	Y20	Z20	X21	Y21	Z21	X22	Y22	Z22	X23	Y23	Z23	X24	Y24	Z24	X25	Y25	Z25	X26	Y26	Z26	X27	Y27	Z27	X28	Y28	Z28	X29	Y29	Z29	X30	Y30	Z30	X31	Y31	Z31	X32	Y32	Z32	X33	Y33	Z33	X34	Y34	Z34	X35	Y35	Z35	X36	Y36	Z36	X37	Y37	Z37	X38	Y38	Z38	X39	Y39	Z39	X40	Y40	Z40	X41	Y41	Z41	X42	Y42	Z42	X43	Y43	Z43	X44	Y44	Z44	X45	Y45	Z45	X46	Y46	Z46	X47	Y47	Z47	X48	Y48	Z48	X49	Y49	Z49	X50	Y50	Z50	X51	Y51	Z51	X52	Y52	Z52	X53	Y53	Z53	X54	Y54	Z54	X55	Y55	Z55	

1	0	960.6896362304688	36.15862274169934	-1933.677978515625	1063.224975585938	32.96255874633788	86.66633605957031	390.6435241699219	1584.01611328125	-1197.317749023438	341.2906188964844	1609.321411132812	-1133.298706054688	346.1004333496094	1608.70068359375	-1268.745361328125	161.2390441894531	1425.336181640625	-1203.429321289062	101.8542098999023	1259.4541015625	-1211.922607421875	96.47732543945312	1224.240234375	-1233.121459960938	90.57234954833984	1215.436401367188	-1183.671997070312	94.29554748535156	1159.69287109375	-1219.53564453125	98.63430786132812	1096.630859375	-1218.05126953125	76.49192047119141	1073.010131835938	-1235.066162109375	77.05805206298828	1070.074829101562	-1184.6845703125	65.35443878173828	1011.149963378906	-1213.933227539062	58.42578887939453	937.5273437500001	-1236.281616210938	59.08289337158203	934.5844726562501	-1184.880126953125	47.81292343139648	876.0023803710939	-1213.490478515625	139.4672546386719	676.9561767578126	-1429.0146484375	112.1110916137695	611.0156250000001	-1394.500854492188	147.6156463623047	615.9588012695314	-1429.195922851562	137.3737182617188	334.6626281738282	-1507.105712890625	98.27553558349609	266.5189514160157	-1493.9990234375	142.7526550292969	273.6521911621095	-1517.330444335938	111.7083435058594	68.77132415771493	-1473.423950195312	315.4049987792969	50.82839965820322	-1548.985229492188	238.9944458007812	26.41687774658213	-1627.549438476562	119.3765487670898	688.4147949218751	-1009.620483398438	168.2476196289062	643.7430419921876	-964.9656372070312	133.3404083251953	629.4107666015626	-997.7857055664062	103.2001571655273	350.1554565429688	-929.6798706054688	131.1960906982422	284.9696960449219	-895.777099609375	95.09580993652344	288.2669067382813	-929.842529296875	93.31716918945312	63.92000961303717	-966.482177734375	285.8973388671875	47.94691848754888	-875.7415771484375	200.0029754638672	38.2797241210938	-801.2999267578125	332.3982238769531	1329.172119140625	-1211.748168945312	347.7456359863281	1182.525756835938	-1210.868774414062	213.6939697265625	1404.49658203125	-1371.105102539062	144.5728759765625	1287.107788085938	-1477.933959960938	111.4358291625977	1231.474853515625	-1489.932495117188	149.6616973876953	1240.346435546875	-1522.992309570312	178.0680389404297	1184.188232421875	-1613.7734375	256.2241821289062	1187.471923828125	-1626.4951171875	223.5589904785156	1225.48291015625	-1619.915405273438	284.6085815429688	1310.235473632812	-1624.542358398438	290.4730224609375	1310.824951171875	-1546.915405273438	222.5908203125	1400.17578125	-1053.422607421875	166.4618072509766	1284.252685546875	-945.4602050781249	166.9688415527344	1238.103881835938	-898.1959228515624	139.3981475830078	1224.780883789062	-940.5885620117186	219.4194946289062	1201.743408203125	-795.9333496093749	209.5069580078125	1280.380737304688	-802.3597412109374	251.6406860351562	1254.650024414062	-793.4489746093749	277.7777099609375	1345.817749023438	-803.6271972656249	285.656982421875	1344.728881835938	-881.0380249023436	
2	0.005	960.690185546875	36.16090774536145	-1933.673095703125	1063.222900390625	32.95983886718749	86.6654052734375	390.9803161621094	1583.964111328125	-1197.383911132812	341.6187438964844	1609.26123046875	-1133.37353515625	346.4427185058594	1608.630493164062	-1268.836181640625	161.5602722167969	1425.343872070312	-1203.480834960938	101.9986190795898	1259.5576171875	-1211.949096679688	96.58552551269531	1224.365478515625	-1233.151733398438	90.65037536621094	1215.563598632812	-1183.716186523438	94.30032348632812	1159.8203125	-1219.565185546875	98.51860046386719	1096.78955078125	-1218.050048828125	76.33745574951172	1073.205444335938	-1235.050537109375	76.89311981201172	1070.280517578125	-1184.672485351562	65.07705688476562	1011.3642578125	-1213.9248046875	58.04262924194336	937.5552368164064	-1236.268432617188	58.7072868347168	934.6185302734376	-1184.864868164062	47.43157196044922	876.0316772460939	-1213.472290039062	139.3511505126953	676.8413696289064	-1429.165283203125	112.1748962402344	610.8043212890626	-1394.691040039062	147.6297607421875	615.8677368164064	-1429.425415039062	137.5532684326172	334.7066040039064	-1507.301635742188	98.42026519775391	266.5983886718751	-1494.119506835938	142.8860473632812	273.6860961914064	-1517.486328125	111.7174301147461	68.77883148193368	-1473.409790039062	315.4074096679688	50.8300323486329	-1548.983764648438	238.9912261962891	26.41774368286143	-1627.544799804688	119.4225921630859	688.1754760742189	-1009.3291015625	168.4566955566406	643.7163696289064	-964.6373291015625	133.5919952392578	629.2412109375001	-997.4401245117188	103.7268905639648	350.2232666015626	-929.261962890625	131.6307373046875	284.9423522949219	-895.4660034179688	95.52085113525391	288.3490905761719	-929.5066528320312	93.32083129882812	63.9234352111817	-966.48291015625	285.9033203125	47.94387054443365	-875.7513427734375	200.0117340087891	38.29337310791021	-801.3106079101562	332.6219177246094	1329.03564453125	-1211.791748046875	347.810791015625	1182.357543945312	-1210.906494140625	214.0181427001953	1404.449584960938	-1371.16015625	144.7945404052734	1287.111572265625	-1477.988037109375	111.6004943847656	1231.504638671875	-1489.9794921875	149.848388671875	1240.333251953125	-1523.036743164062	178.1901550292969	1184.13232421875	-1613.799682617188	256.3499145507812	1187.343627929688	-1626.515380859375	223.7168273925781	1225.3828125	-1619.947143554688	284.8390502929688	1310.079833984375	-1624.590576171875	290.6985778808594	1310.6806640625	-1546.959838867188	222.9090118408203	1400.161987304688	-1053.47509765625	166.7001342773438	1284.235717773438	-945.5191650390624	167.1432037353516	1238.038208007812	-898.3060913085936	139.5393371582031	1224.78564453125	-940.6596069335936	219.5624694824219	1201.617065429688	-796.0230712890624	209.7110290527344	1280.264892578125	-802.4125976562499	251.8311004638672	1254.507202148438	-793.5207519531249	278.0707397460938	1345.640258789062	-803.6984252929686	285.8381042480469	1344.61865234375	-881.1025390624999	
3	0.01	960.6909790039062	36.16361236572278	-1933.667236328125	1063.220458984375	32.95652770996093	86.66431427001953	391.3765258789062	1583.892700195312	-1197.460205078125	342.0044555664062	1609.180419921875	-1133.460083007812	346.8428344726562	1608.537353515625	-1268.937866210938	161.9376678466797	1425.34375	-1203.541259765625	102.167594909668	1259.67041015625	-1211.97998046875	96.71306610107422	1224.50244140625	-1233.1865234375	90.74256896972656	1215.703491210938	-1183.76708984375	94.30756378173828	1159.96044921875	-1219.597900390625	98.38383483886719	1096.966552734375	-1218.046752929688	76.15643310546875	1073.424682617188	-1235.031494140625	76.70018005371094	1070.511962890625	-1184.657470703125	64.75283813476562	1011.6064453125	-1213.9140625	57.59580612182617	937.5838623046876	-1236.253051757812	58.26889419555664	934.6516723632814	-1184.846801757812	46.98675155639648	876.0607910156251	-1213.454223632812	139.2197875976562	676.7075195312501	-1429.3466796875	112.2424011230469	610.5596923828126	-1394.923828125	147.6478424072266	615.7617187500001	-1429.696166992188	137.7608947753906	334.7559814453126	-1507.535400390625	98.58714294433594	266.6894836425782	-1494.264526367188	143.0402221679688	273.7235717773439	-1517.671508789062	111.7258453369141	68.78623199462899	-1473.395141601562	315.4094848632812	50.83277511596689	-1548.981811523438	238.9874572753906	26.41884231567393	-1627.5390625	119.4769668579102	687.8854980468751	-1008.984313964844	168.6995697021484	643.6766357421876	-964.2462768554688	133.8869171142578	629.0330200195314	-997.029296875	104.348503112793	350.3007812500001	-928.76416015625	132.1440124511719	284.9084472656251	-895.0941772460938	96.02245330810547	288.4441833496094	-929.1048583984375	93.32643127441406	63.92737960815435	-966.4849243164062	285.9112854003906	47.93894958496099	-875.7633056640625	200.0229797363281	38.30951309204107	-801.3242797851562	332.8841247558594	1328.864990234375	-1211.841796875	347.8865356445312	1182.150634765625	-1210.949584960938	214.3993377685547	1404.386962890625	-1371.223510742188	145.0558776855469	1287.1103515625	-1478.050903320312	111.7895202636719	1231.537353515625	-1490.037719726562	150.0639801025391	1240.312866210938	-1523.089965820312	178.3327484130859	1184.063354492188	-1613.831787109375	256.4962158203125	1187.189453125	-1626.540771484375	223.901123046875	1225.26220703125	-1619.984985351562	285.1108093261719	1309.892822265625	-1624.6455078125	290.9626159667969	1310.506958007812	-1547.011596679688	223.2801055908203	1400.134155273438	-1053.535034179688	166.9766387939453	1284.212646484375	-945.5855712890624	167.3476867675781	1237.961181640625	-898.4270629882811	139.7042083740234	1224.787353515625	-940.7402343749999	219.7287902832031	1201.465698242188	-796.1262817382811	209.9543304443359	1280.127197265625	-802.4744262695311	252.0556793212891	1254.336181640625	-793.6043090820311	278.4125671386719	1345.428344726562	-803.7807617187499	286.0561218261719	1344.482666015625	-881.1780395507811	
4	0.015	960.69189453125	36.1667060852052	-1933.66064453125	1063.217651367188	32.95264434814452	86.66307830810547	391.8318481445312	1583.799072265625	-1197.546142578125	342.4473876953125	1609.07568359375	-1133.558349609375	347.3001403808594	1608.418090820312	-1269.049072265625	162.3707427978516	1425.332885742188	-1203.610595703125	102.3607482910156	1259.78955078125	-1212.014892578125	96.85990905761719	1224.647827148438	-1233.2255859375	90.84902954101562	1215.853149414062	-1183.824096679688	94.31774139404297	1160.109741210938	-1219.633056640625	98.23049926757812	1097.158813476562	-1218.041015625	75.94918823242188	1073.66455078125	-1235.0087890625	76.47990417480469	1070.765869140625	-1184.63916015625	64.38289642333984	1011.873046875	-1213.90087890625	57.08692932128906	937.6118164062501	-1236.2353515625	57.76907730102539	934.6815795898439	-1184.826171875	46.47999954223633	876.0881347656251	-1213.437255859375	139.0747985839844	676.5549926757814	-1429.559936523438	112.3115386962891	610.2827148437501	-1395.201538085938	147.6704559326172	615.6410522460939	-1430.007934570312	137.9959716796875	334.8100891113282	-1507.807983398438	98.77548980712891	266.7916259765626	-1494.435668945312	143.2147521972656	273.7638549804689	-1517.88671875	111.7329406738281	68.79315948486337	-1473.380493164062	315.4110107421875	50.83684539794931	-1548.979614257812	238.9831848144531	26.42014694213877	-1627.532470703125	119.5395584106445	687.5425415039064	-1008.585998535156	168.9748687744141	643.6215209960939	-963.7916259765625	134.2242279052734	628.7837524414064	-996.5521850585938	105.0648574829102	350.3872375488282	-928.18505859375	132.73583984375	284.8675231933594	-894.6602172851562	96.60044860839844	288.5515747070313	-928.6356201171875	93.33432769775391	63.93185424804693	-966.4884643554688	285.9215087890625	47.93175506591803	-875.7774658203125	200.0369415283203	38.32813644409185	-801.3413696289062	333.184326171875	1328.6572265625	-1211.897705078125	347.9725036621094	1181.902221679688	-1210.997192382812	214.837158203125	1404.306396484375	-1371.294677734375	145.3567810058594	1287.102416992188	-1478.122314453125	112.0022735595703	1231.571899414062	-1490.107543945312	150.3072967529297	1240.283813476562	-1523.15185546875	178.4953918457031	1183.980346679688	-1613.869995117188	256.6624755859375	1187.008666992188	-1626.571899414062	224.1112976074219	1225.1201171875	-1620.029174804688	285.4235229492188	1309.673461914062	-1624.706787109375	291.2645263671875	1310.302734375	-1547.070068359375	223.7033233642578	1400.089111328125	-1053.602294921875	167.2898406982422	1284.182006835938	-945.6585083007811	167.5813140869141	1237.872436523438	-898.5560913085936	139.8922729492188	1224.785034179688	-940.8292846679686	219.9177398681641	1201.288818359375	-796.2421264648436	210.2365417480469	1279.966918945312	-802.5449218749999	252.3142700195312	1254.135986328125	-793.6993408203124	278.8020629882812	1345.18115234375	-803.8738403320311	286.3122863769531	1344.318725585938	-881.2643432617186	
